<svg version="1.2" xmlns="http://www.w3.org/2000/svg" viewBox="0 0 809 447" width="809" height="447"><style>.a{fill:#262b2c;stroke:#262b2c;stroke-linecap:round;stroke-linejoin:round;stroke-width:10}.b{fill:#262b2c}.c{fill:none;stroke:#fff;stroke-linecap:round;stroke-miterlimit:100;stroke-width:7}.d{fill:none;stroke:#fff;stroke-linecap:round;stroke-miterlimit:100;stroke-width:27}.e{fill:#fff;stroke:#262b2b;stroke-linecap:round;stroke-linejoin:round;stroke-width:10}.f{fill:#fff;stroke:#272c2c;stroke-linecap:round;stroke-linejoin:round;stroke-width:8}.g{fill:none;stroke:#252c2b;stroke-linecap:round;stroke-linejoin:round;stroke-width:8}.h{fill:none;stroke:#252a2c;stroke-linecap:round;stroke-linejoin:round;stroke-width:10}.i{fill:none;stroke:#252b2b;stroke-linecap:round;stroke-linejoin:round;stroke-width:10}.j{fill:none;stroke:#262b2c;stroke-linecap:round;stroke-linejoin:round;stroke-width:10}.k{fill:none;stroke:#fff;stroke-linecap:round;stroke-linejoin:round;stroke-width:10}.l{fill:#fff}.m{fill:#e8392a}</style><path fill-rule="evenodd" class="a" d="m422.5 269c-29 0-52.5 23.5-52.5 52.5v115.5c0 2.8 2.2 5 5 5h313.3c130.8 1.3 113.3-31.3 114.7-173z"/><path fill-rule="evenodd" class="b" d="m655.8 314c-79 0-142.8-63.8-142.8-142.8 0-78.9 63.8-142.7 142.8-142.7 78.9 0 142.7 63.8 142.7 142.8 0 78.9-63.8 142.7-142.7 142.7z"/><path fill-rule="evenodd" class="c" d="m655.5 277c-60 0-108.5-47.2-108.5-105.5 0-58.3 48.5-105.5 108.5-105.5 60 0 108.5 47.2 108.5 105.5 0 58.3-48.5 105.5-108.5 105.5z"/><path fill-rule="evenodd" class="c" d="m655.4 239c-38.4 0-69.4-30.2-69.4-67.5 0-37.3 31-67.5 69.4-67.5 38.4 0 69.4 30.2 69.4 67.5 0 37.3-31 67.5-69.4 67.5z"/><path fill-rule="evenodd" class="c" d="m654.4 238c-38.4 0-69.4-30.2-69.4-67.5 0-37.3 31-67.5 69.4-67.5 38.4 0 69.4 30.2 69.4 67.5 0 37.3-31 67.5-69.4 67.5z"/><path fill-rule="evenodd" class="d" d="m654.6 194.3c-13.3 0-24.1-10.4-24.1-23.4 0-12.9 10.8-23.4 24.1-23.4 13.3 0 24.1 10.5 24.1 23.4 0 13-10.8 23.4-24.1 23.4z"/><path fill-rule="evenodd" class="e" d="m791 24.2l-16.8 44.1-32.6-12.4 16.8-44.1z"/><path fill-rule="evenodd" class="f" d="m732 171.4l-13.4 35.2-26-9.9 13.4-35.2 4 1.5 16.6 6.5z"/><path fill-rule="evenodd" class="g" d="m817 92"/><path fill-rule="evenodd" class="h" d="m759 9.2l33 12.3c0 0-16.1-6-4.6-5.1 11.5 0.8-25.3-10.6-25.3-10.6"/><path fill-rule="evenodd" class="i" d="m790 26c0 0 2-8.3 2-8"/><path fill-rule="evenodd" class="j" d="m728 169.5l37.9-102.5"/><path fill-rule="evenodd" class="j" d="m728 169.5l37.9-102.5"/><path fill-rule="evenodd" class="j" d="m710.9 162.6l37.7-101.7"/><path fill-rule="evenodd" class="j" d="m710.9 162.6l37.7-101.7"/><path fill-rule="evenodd" class="k" d="m760.7 53.3l-46.6 128"/><path class="l" d="m433.7 410.6c10.3 10.4 24.7 15.7 43.2 15.7 18.5 0 33-5.3 43.7-15.8 10.7-10.6 16.1-26.2 16.1-46.9v-22.3c0-20.8-5.3-36.5-15.8-46.9-10.4-10.5-24.8-15.8-43.2-15.8-18.6 0-33.2 5.3-43.7 15.8-10.6 10.4-15.8 26.1-15.8 46.9v22.3c0 20.8 5.1 36.5 15.5 47zm75.9-47.4c0 25.8-10.6 38.7-31.9 38.7-10.9 0-19-3.2-24.3-9.5-5.3-6.4-7.9-16.1-7.9-29.2v-20.5c0-13.6 2.6-23.7 7.9-30.4 5.3-6.6 13.4-9.9 24.3-9.9 21.3 0 31.9 13.5 31.9 40.3zm59.6 50.8c8.1 7.9 20 11.9 35.9 11.9 15.8 0 27.8-3.9 35.9-11.8 8-7.9 12.1-19.6 12.1-35.1v-62.5h-25.7v61.2c0 8.4-1.7 14.7-5.1 18.9-3.5 4.2-9.2 6.3-17.2 6.3-7.9 0-13.5-2.1-17.1-6.4-3.5-4.2-5.2-10.5-5.2-18.8v-61.2h-25.7v62.5c0 15.4 4.1 27.1 12.1 35zm143.4-79.5h24.4v-18h-24.4v-30l-25.4 8.9v21.1h-18.8v18h18.8v56.4c0 10.7 2.9 18.8 8.7 24.6 5.8 5.7 14.1 8.5 25 8.5h13.8v-21.7h-9.1c-4.6 0-8-1-10-3-2-2-3-5.3-3-10z"/><path class="m" d="m81.1 105.9c-7.3-8.1-17.6-12.2-30.6-12.2h-50.3v150.3h22.1v-57.1h27.3c13.7 0 24.2-4 31.5-12.2 7.4-8.1 11.1-19.4 11.1-34 0-15.1-3.7-26.7-11.1-34.8zm-11 34.6c0 14.3-6.3 21.4-18.8 21.4h-29v-43.4h29c6 0 10.6 1.8 13.9 5.5 3.2 3.6 4.9 9.1 4.9 16.5zm58.4 98.1c7.1 4.5 15.3 6.7 24.6 6.7 9.5 0 17.8-2.2 24.9-6.7 7.2-4.5 12.7-11 16.6-19.3 3.9-8.4 5.8-18.1 5.8-29.3v-96.3h-22.1v95.4c0 10.2-2.2 17.9-6.6 23.3-4.4 5.4-10.6 8.1-18.6 8.1-8 0-14.1-2.7-18.4-8.1-4.2-5.4-6.4-13.1-6.4-23.3v-95.4h-22.1v96.3c0 11.2 1.9 20.9 5.8 29.3 3.9 8.3 9.4 14.8 16.5 19.3zm91.8-144.9v150.3h82.3v-24.8h-60.1v-125.5zm104 139.5c7.7 8.1 18.7 12.1 32.9 12.1 14.5 0 25.9-4 34.3-12.1 8.3-8 12.4-19.6 12.4-34.7 0-12.2-2.8-21.8-8.6-28.9-5.7-7-14.1-11.5-25.1-13.4l-14-2.4c-7.2-1.1-12.5-3.2-15.7-6.3-3.3-3-4.9-7.3-4.9-12.9 0-6.1 1.8-10.8 5.5-14.1 3.8-3.4 9.3-5 16.6-5 7.3 0 12.8 1.6 16.4 5 3.7 3.3 5.8 8.6 6.2 15.9h21.3c-0.9-14.5-5.1-25.6-12.5-33.3-7.4-7.7-17.7-11.6-30.9-11.6-13.6 0-24.4 4-32.3 12.1-7.8 8.1-11.8 19.1-11.8 33.2 0 24.3 11.8 38.3 35.5 42.1l12.3 1.9c7.2 1 12.4 3.1 15.5 6.2 3.2 3.2 4.8 7.7 4.8 13.7 0 13.5-8 20.2-23.8 20.2-8.1 0-14.3-1.8-18.5-5.3-4.2-3.6-6.8-9.4-7.5-17.3h-21.1c0.9 15.2 5.2 26.9 13 34.9zm117-114.7h61.1v-24.8h-83.3v150.3h83.3v-24.8h-61.1v-38.6h52.5v-24.8h-52.5z"/><path class="m" d="m81.1 105.9c-7.3-8.1-17.6-12.2-30.6-12.2h-50.3v150.3h22.1v-57.1h27.3c13.7 0 24.2-4 31.5-12.2 7.4-8.1 11.1-19.4 11.1-34 0-15.1-3.7-26.7-11.1-34.8zm-11 34.6c0 14.3-6.3 21.4-18.8 21.4h-29v-43.4h29c6 0 10.6 1.8 13.9 5.5 3.2 3.6 4.9 9.1 4.9 16.5zm58.4 98.1c7.1 4.5 15.3 6.7 24.6 6.7 9.5 0 17.8-2.2 24.9-6.7 7.2-4.5 12.7-11 16.6-19.3 3.9-8.4 5.8-18.1 5.8-29.3v-96.3h-22.1v95.4c0 10.2-2.2 17.9-6.6 23.3-4.4 5.4-10.6 8.1-18.6 8.1-8 0-14.1-2.7-18.4-8.1-4.2-5.4-6.4-13.1-6.4-23.3v-95.4h-22.1v96.3c0 11.2 1.9 20.9 5.8 29.3 3.9 8.3 9.4 14.8 16.5 19.3zm91.8-144.9v150.3h82.3v-24.8h-60.1v-125.5zm104 139.5c7.7 8.1 18.7 12.1 32.9 12.1 14.5 0 25.9-4 34.3-12.1 8.3-8 12.4-19.6 12.4-34.7 0-12.2-2.8-21.8-8.6-28.9-5.7-7-14.1-11.5-25.1-13.4l-14-2.4c-7.2-1.1-12.5-3.2-15.7-6.3-3.3-3-4.9-7.3-4.9-12.9 0-6.1 1.8-10.8 5.5-14.1 3.8-3.4 9.3-5 16.6-5 7.3 0 12.8 1.6 16.4 5 3.7 3.3 5.8 8.6 6.2 15.9h21.3c-0.9-14.5-5.1-25.6-12.5-33.3-7.4-7.7-17.7-11.6-30.9-11.6-13.6 0-24.4 4-32.3 12.1-7.8 8.1-11.8 19.1-11.8 33.2 0 24.3 11.8 38.3 35.5 42.1l12.3 1.9c7.2 1 12.4 3.1 15.5 6.2 3.2 3.2 4.8 7.7 4.8 13.7 0 13.5-8 20.2-23.8 20.2-8.1 0-14.3-1.8-18.5-5.3-4.2-3.6-6.8-9.4-7.5-17.3h-21.1c0.9 15.2 5.2 26.9 13 34.9zm117-114.7h61.1v-24.8h-83.3v150.3h83.3v-24.8h-61.1v-38.6h52.5v-24.8h-52.5z"/></svg>